<?xml version="1.0" encoding="UTF-8"?>
<svg width="20px" height="20px" viewBox="0 0 20 20" version="1.1" xmlns="http://www.w3.org/2000/svg" xmlns:xlink="http://www.w3.org/1999/xlink">
    <g id="Page-1" stroke="none" stroke-width="1" fill="none" fill-rule="evenodd">
        <g id="Artboard" fill="#FFFFFF">
            <path d="M18.028169,6.02339181 L10,10.9824561 L1.97183099,6.02339181 L1.97183099,4.01169591 L10,9.01754386 L18.028169,4.01169591 L18.028169,6.02339181 Z M1.97183099,2 C1.40844789,2.03118924 0.938969014,2.23391626 0.563380282,2.60818713 C0.187791549,2.98245801 0,3.45028959 0,4.01169591 L0,15.9883041 C0,16.5497104 0.187791549,17.017542 0.563380282,17.3918129 C0.938969014,17.7660837 1.40844789,17.9688108 1.97183099,18 L18.028169,18 C18.5915521,17.9688108 19.061031,17.7660837 19.4366197,17.3918129 C19.8122085,17.017542 20,16.5497104 20,15.9883041 L20,4.01169591 C20,3.45028959 19.8122085,2.98245801 19.4366197,2.60818713 C19.061031,2.23391626 18.5915521,2.03118924 18.028169,2 L1.97183099,2 Z" id=""></path>
        </g>
    </g>
</svg>
