<?xml version="1.0" encoding="UTF-8"?>
<svg width="278px" height="100px" viewBox="0 0 278 100" version="1.1" xmlns="http://www.w3.org/2000/svg" xmlns:xlink="http://www.w3.org/1999/xlink">
    <g id="Symbols" stroke="none" stroke-width="1" fill="none" fill-rule="evenodd">
        <g id="PLC-and-HMI-Programming" transform="translate(-51.000000, -50.000000)" fill="#FFFFFF">
            <g id="Group" transform="translate(51.000000, 50.000000)">
                <rect id="Combined-Shape" x="0" y="0" width="10" height="100"></rect>
                <rect id="Combined-Shape" x="60" y="20" width="10" height="60"></rect>
                <rect id="Combined-Shape" x="90" y="20" width="10" height="60"></rect>
                <rect id="Rectangle-2" fill-opacity="0.699999988" x="150" y="45" width="10" height="10"></rect>
                <rect id="Rectangle-2" fill-opacity="0.699999988" x="170" y="45" width="10" height="10"></rect>
                <rect id="Combined-Shape" fill-opacity="0.699999988" x="10" y="45" width="50" height="10"></rect>
                <rect id="Combined-Shape" fill-opacity="0.699999988" x="190" y="45" width="30" height="10"></rect>
                <rect id="Combined-Shape" fill-opacity="0.699999988" x="100" y="45" width="30" height="10"></rect>
                <path d="M227.096284,20.0974303 C225.844729,22.2876512 224.596847,24.7210225 223.430942,27.3443077 C220.046038,34.9603414 218,42.6329853 218,50 C218,57.3670147 220.046038,65.0396586 223.430942,72.6556923 C224.596847,75.2789775 225.844729,77.7123488 227.096284,79.9025697 C227.859057,81.2374221 228.466113,82.213048 228.839749,82.773501 L237.160251,77.226499 C237.110572,77.1519792 236.992413,76.9688331 236.815596,76.6846624 C236.506061,76.1871955 236.157163,75.6034636 235.778716,74.9411803 C234.686521,73.0298387 233.590653,70.8928975 232.569058,68.5943077 C229.703962,62.1478414 228,55.7579853 228,50 C228,44.2420147 229.703962,37.8521586 232.569058,31.4056923 C233.590653,29.1071025 234.686521,26.9701613 235.778716,25.0588197 C236.157163,24.3965364 236.506061,23.8128045 236.815596,23.3153376 C236.992413,23.0311669 237.110572,22.8480208 237.160251,22.773501 L228.839749,17.226499 C228.466113,17.786952 227.859057,18.7625779 227.096284,20.0974303 Z" id="Path-2"></path>
                <path d="M259.184404,23.3153376 C259.493939,23.8128045 259.842837,24.3965364 260.221284,25.0588197 C261.313479,26.9701613 262.409347,29.1071025 263.430942,31.4056923 C266.296038,37.8521586 268,44.2420147 268,50 C268,55.7579853 266.296038,62.1478414 263.430942,68.5943077 C262.409347,70.8928975 261.313479,73.0298387 260.221284,74.9411803 C259.842837,75.6034636 259.493939,76.1871955 259.184404,76.6846624 C259.007587,76.9688331 258.889428,77.1519792 258.839749,77.226499 L267.160251,82.773501 C267.533887,82.213048 268.140943,81.2374221 268.903716,79.9025697 C270.155271,77.7123488 271.403153,75.2789775 272.569058,72.6556923 C275.953962,65.0396586 278,57.3670147 278,50 C278,42.6329853 275.953962,34.9603414 272.569058,27.3443077 C271.403153,24.7210225 270.155271,22.2876512 268.903716,20.0974303 C268.140943,18.7625779 267.533887,17.786952 267.160251,17.226499 L258.839749,22.773501 C258.889428,22.8480208 259.007587,23.0311669 259.184404,23.3153376 Z" id="Path-2"></path>
            </g>
        </g>
    </g>
</svg>
